# AST/ASF file generated using VICON BodyLanguage
# -----------------------------------------------
:version 1.10
:name VICON
:units
  mass 1.0
  length 0.45
  angle deg
:documentation
   .ast/.asf automatically generated from VICON data using
   VICON BodyBuilder and BodyLanguage model FoxedUp or BRILLIANT.MOD
:root
   order TX TY TZ RX RY RZ
   axis XYZ
   position 0 0 0  
   orientation 0 0 0 
:bonedata
  begin
     id 1 
     name lhipjoint
     direction 0.611823 -0.767273 0.19226 
     length 2.47422 
     axis 0 0 0  XYZ
  end
  begin
     id 2 
     name lfemur
     direction 0.34202 -0.939693 0  
     length 7.40835  
     axis 0 0 20  XYZ
    dof rx ry rz
    limits (-160.0 20.0)
           (-70.0 70.0)
           (-60.0 70.0)
  end
  begin
     id 3 
     name ltibia
     direction 0.34202 -0.939693 0   
     length 8.03679   
     axis 0 0 20   XYZ
    dof rx
    limits (-10.0 170.0)
  end
  begin
     id 4 
     name lfoot
     direction 0.0883598 -0.242766 0.966052   
     length 2.06694   
     axis -90 7.62852e-016 20   XYZ
    dof rx rz
    limits (-45.0 90.0)
           (-70.0 20.0)
  end
  begin
     id 5 
     name ltoes
     direction 1.53617e-011 -4.21699e-011 1   
     length 1.03711   
     axis -90 7.62852e-016 20   XYZ
    dof rx
    limits (-90.0 20.0)
  end
  begin
     id 6 
     name rhipjoint
     direction -0.590066 -0.783143 0.196236   
     length 2.42408  
     axis 0 0 0  XYZ 
  end
  begin
     id 7 
     name rfemur
     direction -0.34202 -0.939693 0   
     length 7.88987   
     axis 0 0 -20   XYZ
    dof rx ry rz
    limits (-160.0 20.0)
           (-70.0 70.0)
           (-70.0 60.0)
  end
  begin
     id 8 
     name rtibia
     direction -0.34202 -0.939693 0   
     length 7.87584   
     axis 0 0 -20   XYZ
    dof rx
    limits (-10.0 170.0)
 end
 begin
     id 9 
     name rfoot
     direction -0.130476 -0.358481 0.924374   
     length 2.21745  
     axis -90 -7.62852e-016 -20   XYZ
    dof rx rz
    limits (-45.0 90.0)
           (-20.0 70.0)
  end
  begin
     id 10 
     name rtoes
     direction 8.20695e-005 8.89091e-005 1   
     length 1.09536   
     axis -90 -7.62852e-016 -20   XYZ
    dof rx
    limits (-90.0 20.0)
  end
  begin
     id 11 
     name lowerback
     direction 0.00981224 0.999875 -0.0124197   
     length 1.94808   
     axis 0 0 0   XYZ
    dof rx ry rz
    limits (-20.0 45.0)
           (-30.0 30.0)
           (-30.0 30.0)
  end
  begin
     id 12 
     name upperback
     direction 0.038911 0.999194 0.00981686   
     length 1.94415   
     axis 0 0 0   XYZ
    dof rx ry rz
    limits (-20.0 45.0)
           (-30.0 30.0)
           (-30.0 30.0)
  end
  begin
     id 13 
     name thorax
     direction 0.0330692 0.999334 0.0154389   
     length 1.94117   
     axis 0 0 0   XYZ
    dof rx ry rz
    limits (-20.0 45.0)
           (-30.0 30.0)
           (-30.0 30.0)
  end
  begin
     id 14 
     name lowerneck
     direction -0.0374305 0.99415 0.10132   
     length 1.87291   
     axis 0 0 0   XYZ
    dof rx ry rz
    limits (-20.0 45.0)
           (-30.0 30.0)
           (-30.0 30.0)
  end
  begin
     id 15 
     name upperneck
     direction 0.0120692 0.985979 -0.166431   
     length 1.89248   
     axis 0 0 0   XYZ
    dof rx ry rz
    limits (-20.0 45.0)
           (-30.0 30.0)
           (-30.0 30.0)
  end
  begin
     id 16
     name head
     direction 0.00629908 0.997708 -0.06737  
     length 1.90559  
     axis 0 0 0   XYZ
    dof rx ry rz
    limits (-20.0 45.0)
           (-30.0 30.0)
           (-30.0 30.0)
  end
  begin
     id 17 
     name lclavicle
     direction 0.961536 0.27308 -0.0295863  
     length 3.52757  
     axis 0 0 0   XYZ
    dof ry rz
    limits (-20.0 10.0)
           (0.0 20.0)
  end
  begin
     id 18 
     name lhumerus
     direction 1 -4.48969e-011 2.61153e-029   
     length 5.14845   
     axis 180 -30 -90   XYZ
    dof rx ry rz
    limits (-60.0 90.0)
           (-90.0 90.0)
           (-90.0 90.0)
  end
  begin
     id 19
     name lradius
     direction 1 -4.4896e-011 -3.37549e-027   
     length 3.43674   
     axis 180 -30 -90   XYZ
    dof rx
    limits (-10.0 170.0)
  end
  begin
     id 20
     name lwrist
     direction 1 -4.48969e-011 2.56952e-028   
     length 1.71837   
     axis -5.12785e-016 90 90   XYZ
    dof ry
    limits (-180.0 0.0)
 end
  begin
     id 21 
     name lhand
     direction 1 -4.49094e-011 5.13905e-028   
     length 0.588709   
     axis -3.27915e-016 90 90   XYZ
    dof rx rz
    limits (-90.0 90.0)
           (-45.0 45.0)
  end
  begin
     id 22 
     name lfingers
     direction 1 -4.48821e-011 1.02781e-027   
     length 0.474633   
     axis -6.5583e-016 90 90   XYZ
    dof rx
    limits (0.0 90.0)
  end
  begin
     id 23
     name lthumb
     direction 0.707107 -6.34922e-011 0.707107   
     length 0.68148   
     axis -90 45 2.85299e-015   XYZ
    dof rx rz
    limits (-45.0 45.0)
           (-45.0 45.0)
  end
  begin
     id 24 
     name rclavicle
     direction -0.940964 0.333844 -0.0559866   
     length 3.55948  
     axis 0 0 0   XYZ 
    dof ry rz
    limits (-10.0 20.0)
           (-20.0 0.0)
  end
  begin
     id 25 
     name rhumerus
     direction -1 -4.48973e-011 3.15259e-027  
     length 5.42185   
     axis 180 30 90   XYZ
    dof rx ry rz
    limits (-90.0 60.0)
           (-90.0 90.0)
           (-90.0 90.0)
  end
  begin
     id 26 
     name rradius
     direction -1 -4.48954e-011 -2.56271e-027   
     length 3.51317   
     axis 180 30 90   XYZ
    dof rx
    limits (-10.0 170.0)
  end
  begin
     id 27 
     name rwrist
     direction -1 -4.48943e-011 2.56952e-028   
     length 1.75658   
     axis -5.12785e-016 -90 -90   XYZ
    dof ry
    limits (-180.0 0.0)
  end
  begin
     id 28
     name rhand
     direction -1 -4.4912e-011 5.13905e-028   
     length 0.663187   
     axis -3.27915e-016 -90 -90   XYZ
    dof rx rz
    limits (-90.0 90.0)
           (-45.0 45.0)
  end
  begin
     id 29
     name rfingers
     direction -1 -4.48914e-011 1.02781e-027   
     length 0.534679   
     axis -6.5583e-016 -90 -90   XYZ
    dof rx
    limits (0.0 90.0)
  end
  begin
     id 30
     name rthumb
     direction -0.707107 -6.35033e-011 0.707107   
     length 0.767695   
     axis -90 -45 -2.85299e-015   XYZ
    dof rx rz
    limits (-45.0 45.0)
           (-45.0 45.0)
  end
:hierarchy
  begin
    root lhipjoint rhipjoint lowerback
    lhipjoint lfemur
    lfemur ltibia
    ltibia lfoot
    lfoot ltoes
    rhipjoint rfemur
    rfemur rtibia
    rtibia rfoot
    rfoot rtoes
    lowerback upperback
    upperback thorax
    thorax lowerneck lclavicle rclavicle
    lowerneck upperneck
    upperneck head
    lclavicle lhumerus
    lhumerus lradius
    lradius lwrist
    lwrist lhand lthumb
    lhand lfingers
    rclavicle rhumerus
    rhumerus rradius
    rradius rwrist
    rwrist rhand rthumb
    rhand rfingers
  end

#!OML:ASF F:\VICON\USERDATA\INSTALL\Justin_a\Justin_a.ASF
:FULLY-SPECIFIED
:DEGREES
3391
root -2.77616 24.5972 -3.94563 -349.96 -122.239 365.15
lowerback 5.84149 2.07366 0.760758
upperback 1.42606 2.77507 3.35399
thorax -1.93411 1.34045 2.82253
lowerneck -9.30998 -1.58208 -4.40535
upperneck 38.8 -4.73467 1.0058
head 15.2492 -3.36122 0.265816
rclavicle -2.66371e-014 4.29375e-014
rhumerus -32.6745 -1.9711 -80.8272
rradius 44.9711
rwrist -1.88389
rhand -35.7394 14.1346
rfingers 7.12502
rthumb -8.85837 -15.6595
lclavicle -2.66371e-014 4.29375e-014
lhumerus -37.8245 8.02932 85.7581
lradius 40.2994
lwrist 5.97149
lhand -16.2223 21.2848
lfingers 7.12502
lthumb 9.98574 51.0279
rfemur -38.3689 1.09442 28.6288
rtibia 46.7774
rfoot -26.9286 2.87207
rtoes 0.0514741
lfemur -44.1981 -16.7823 -6.96873
ltibia 45.2153
lfoot -23.0431 -10.2289
ltoes -19.7914
3392
root -2.83247 24.5899 -3.92349 -349.929 -123.022 364.891
lowerback 5.90431 1.98488 0.66662
upperback 1.50871 2.64748 3.3539
thorax -1.88256 1.27555 2.88462
lowerneck -9.32573 -1.47039 -4.34307
upperneck 38.903 -4.61496 0.950734
head 15.2956 -3.32409 0.244235
rclavicle 1.70955e-014 7.95139e-015
rhumerus -32.5605 -1.64382 -80.9149
rradius 44.9493
rwrist -1.85906
rhand -35.9222 13.8828
rfingers 7.12502
rthumb -9.03474 -15.9038
lclavicle 1.70955e-014 7.95139e-015
lhumerus -37.96 8.4005 85.6903
lradius 40.3242
lwrist 5.95374
lhand -16.6092 21.4183
lfingers 7.12502
lthumb 9.61238 51.179
rfemur -38.0808 1.07787 28.3647
rtibia 46.8431
rfoot -27.0126 3.13233
rtoes -0.341855
lfemur -43.7633 -17.6799 -6.77482
ltibia 44.5048
lfoot -22.5469 -10.5012
ltoes -18.1992
3393
root -2.88706 24.5894 -3.91366 -350.26 -124.127 365.011
lowerback 5.97509 2.0443 0.659418
upperback 1.59973 2.72114 3.31942
thorax -1.8303 1.31031 2.84665
lowerneck -9.32368 -1.37281 -4.05568
upperneck 38.9789 -4.57992 0.924885
head 15.3214 -3.28522 0.183018
rclavicle -1.59028e-014 4.05521e-014
rhumerus -32.4753 -1.66516 -81.0836
rradius 44.8108
rwrist -1.5909
rhand -35.6725 13.855
rfingers 7.12502
rthumb -8.79377 -15.9418
lclavicle -1.59028e-014 4.05521e-014
lhumerus -38.0936 8.74837 85.4165
lradius 40.2485
lwrist 5.7622
lhand -17.2684 21.7761
lfingers 7.12502
lthumb 8.97638 51.5651
rfemur -37.6588 1.41655 28.2886
rtibia 46.8608
rfoot -27.1285 3.73067
rtoes -0.100875
lfemur -43.057 -18.0669 -6.59893
ltibia 44.0288
lfoot -22.3815 -9.95059
ltoes -18.1046
3394
root -2.9309 24.5952 -3.91836 -351.234 -125.708 365.769
lowerback 6.12467 2.37392 0.637738
upperback 1.71488 3.15105 3.42201
thorax -1.8216 1.51992 2.9283
lowerneck -9.18614 -1.36228 -3.80853
upperneck 39.0454 -4.7009 0.948618
head 15.3193 -3.31409 0.12876
rclavicle 4.81059e-014 7.31528e-014
rhumerus -32.5272 -1.80851 -81.173
rradius 44.7314
rwrist -1.74398
rhand -35.4657 13.9068
rfingers 7.12502
rthumb -8.59424 -15.8983
lclavicle 4.81059e-014 7.31528e-014
lhumerus -38.2497 8.8021 85.2041
lradius 40.1346
lwrist 5.37849
lhand -19.0405 24.1269
lfingers 7.12502
lthumb 7.26607 53.9822
rfemur -36.9807 2.34163 28.5931
rtibia 46.8117
rfoot -27.2489 4.45684
rtoes 0.646396
lfemur -41.9336 -17.6389 -6.32234
ltibia 43.801
lfoot -22.2617 -9.28526
ltoes -17.7891
3395
root -2.98047 24.5898 -3.9008 -351.619 -126.902 366.031
lowerback 6.29299 2.67242 0.838487
upperback 1.68419 3.56306 3.42038
thorax -1.95407 1.72341 2.773
lowerneck -9.04806 -1.49042 -3.71525
upperneck 39.2415 -5.02237 0.974693
head 15.3952 -3.45243 0.0688805
rclavicle -1.43721e-013 -3.97569e-015
rhumerus -32.7124 -2.28946 -80.9611
rradius 44.6079
rwrist -1.74594
rhand -35.7287 14.0617
rfingers 7.12502
rthumb -8.84803 -15.7328
lclavicle -1.43721e-013 -3.97569e-015
lhumerus -38.3482 8.30423 85.3901
lradius 39.948
lwrist 5.48276
lhand -19.1123 23.9698
lfingers 7.12502
lthumb 7.19675 53.8274
rfemur -36.6271 2.64583 28.6438
rtibia 46.777
rfoot -27.5226 5.51301
rtoes 0.447683
lfemur -41.1864 -17.2999 -6.41588
ltibia 43.7554
lfoot -21.9881 -8.93935
ltoes -16.2028
3396
root -3.02826 24.5857 -3.88737 -351.714 -127.996 366.119
lowerback 6.21394 2.76552 0.823488
upperback 1.75409 3.67614 3.56609
thorax -1.85347 1.77596 2.92846
lowerneck -9.15803 -1.4771 -3.93995
upperneck 39.3806 -4.98348 0.936854
head 15.4969 -3.48541 0.0898415
rclavicle 1.74931e-014 -2.62396e-014
rhumerus -32.5807 -2.314 -80.698
rradius 44.5008
rwrist -1.49197
rhand -36.0514 14.3056
rfingers 7.12502
rthumb -9.15941 -15.4754
lclavicle 1.74931e-014 -2.62396e-014
lhumerus -38.2454 8.62309 85.635
lradius 39.6897
lwrist 5.56732
lhand -18.9668 23.7095
lfingers 7.12502
lthumb 7.33721 53.5623
rfemur -36.4167 3.01762 28.572
rtibia 46.7423
rfoot -28.0794 6.72922
rtoes -0.198136
lfemur -40.5617 -16.7755 -6.68103
ltibia 43.799
lfoot -21.8879 -9.42558
ltoes -13.3532
3397
root -3.07228 24.5843 -3.87194 -351.824 -129.057 366.156
lowerback 6.29433 2.82539 0.800894
upperback 1.7991 3.74985 3.68216
thorax -1.86448 1.80926 3.05275
lowerneck -9.25465 -1.42611 -4.19828
upperneck 39.4955 -4.91355 0.998799
head 15.587 -3.49815 0.164834
rclavicle 1.23246e-014 -4.29375e-014
rhumerus -32.5579 -2.48209 -80.4458
rradius 44.5716
rwrist -1.17217
rhand -36.1305 14.4265
rfingers 7.12502
rthumb -9.23568 -15.3512
lclavicle 1.23246e-014 -4.29375e-014
lhumerus -38.2504 8.90544 85.8553
lradius 39.5648
lwrist 5.63475
lhand -18.8501 23.7212
lfingers 7.12502
lthumb 7.44985 53.57
rfemur -36.1806 3.34346 28.4947
rtibia 46.7462
rfoot -28.6563 7.85204
rtoes -1.17355
lfemur -39.8978 -16.2525 -7.00704
ltibia 43.8214
lfoot -21.9211 -10.4702
ltoes -9.12001
3398
root -3.12038 24.5856 -3.8477 -351.773 -130.097 366.064
lowerback 6.351 2.83048 0.855294
upperback 1.76038 3.76363 3.58979
thorax -1.92686 1.81717 2.92178
lowerneck -9.2041 -1.36466 -4.12525
upperneck 39.5721 -4.92892 1.06201
head 15.6142 -3.50372 0.171778
rclavicle -3.61788e-014 2.94201e-014
rhumerus -32.6478 -2.68159 -80.5058
rradius 44.7555
rwrist -0.867845
rhand -35.9848 14.1835
rfingers 7.12502
rthumb -9.09513 -15.6004
lclavicle -3.61788e-014 2.94201e-014
lhumerus -38.4461 8.78132 85.8702
lradius 39.67
lwrist 5.90785
lhand -18.718 23.009
lfingers 7.12502
lthumb 7.57736 52.8533
rfemur -36.0222 3.52345 28.3022
rtibia 46.7212
rfoot -28.9 8.86427
rtoes -2.07126
lfemur -39.3315 -15.7064 -7.48293
ltibia 43.7571
lfoot -22.1716 -10.7986
ltoes -6.50812
3399
root -3.16565 24.5916 -3.83618 -351.893 -131.078 366.064
lowerback 6.33164 2.6831 0.632453
upperback 1.8189 3.54952 3.60533
thorax -1.86045 1.71009 3.08283
lowerneck -9.16219 -1.18419 -3.92654
upperneck 39.6224 -4.72665 0.947417
head 15.6111 -3.42537 0.114026
rclavicle -5.10877e-014 1.59028e-015
rhumerus -32.455 -2.42325 -80.7662
rradius 44.6635
rwrist -0.713134
rhand -35.9809 14.0819
rfingers 7.12502
rthumb -9.09134 -15.7022
lclavicle -5.10877e-014 1.59028e-015
lhumerus -38.6094 9.23172 85.592
lradius 39.6838
lwrist 6.01234
lhand -19.995 24.6026
lfingers 7.12502
lthumb 6.34461 54.4876
rfemur -35.715 3.6905 28.2017
rtibia 46.6619
rfoot -28.9081 9.58577
rtoes -1.71106
lfemur -38.5999 -15.1147 -7.93459
ltibia 43.6022
lfoot -22.5146 -9.9795
ltoes -7.38159
3400
root -3.21124 24.6005 -3.82514 -351.822 -132.024 365.978
lowerback 6.14141 2.58254 0.292793
upperback 1.86316 3.38956 3.66057
thorax -1.72407 1.63053 3.35303
lowerneck -9.03699 -1.07106 -3.76978
upperneck 39.5071 -4.59422 0.862541
head 15.509 -3.37116 0.0724909
rclavicle 2.18663e-014 -2.14687e-014
rhumerus -32.2417 -2.08787 -80.9208
rradius 44.5036
rwrist -0.929642
rhand -35.9889 13.7769
rfingers 7.12502
rthumb -9.09905 -16.0069
lclavicle 2.18663e-014 -2.14687e-014
lhumerus -38.6305 9.8707 85.3958
lradius 39.462
lwrist 5.98108
lhand -19.9998 24.5218
lfingers 7.12502
lthumb 6.34 54.4069
rfemur -35.5511 3.92307 28.0185
rtibia 46.5712
rfoot -29.1689 9.84228
rtoes -3.1603
lfemur -38.0609 -14.5062 -8.41044
ltibia 43.3541
lfoot -22.495 -8.29146
ltoes -10.5656
3401
root -3.25255 24.6067 -3.81342 -351.734 -133.164 365.931
lowerback 6.35281 2.55711 0.31718
upperback 1.69647 3.37332 3.47375
thorax -2.00004 1.62853 3.13395
lowerneck -8.91213 -0.921016 -3.4795
upperneck 39.6224 -4.53786 0.882756
head 15.5277 -3.32872 0.0324914
rclavicle 3.85642e-014 3.33958e-014
rhumerus -32.3785 -2.313 -81.2632
rradius 44.4643
rwrist -0.956812
rhand -36.2429 13.8442
rfingers 7.12502
rthumb -9.34416 -15.9287
lclavicle 3.85642e-014 3.33958e-014
lhumerus -39.0369 9.67698 85.0623
lradius 39.5715
lwrist 6.493
lhand -20.0963 24.7035
lfingers 7.12502
lthumb 6.24686 54.5914
rfemur -35.492 4.38203 27.8412
rtibia 46.491
rfoot -29.5794 10.0563
rtoes -5.25022
lfemur -37.6776 -13.8439 -8.81833
ltibia 43.2785
lfoot -22.4033 -6.58687
ltoes -13.7523
3402
root -3.3071 24.6271 -3.80281 -351.424 -134.019 365.496
lowerback 5.85848 2.45497 -0.428795
upperback 2.00991 3.16468 3.85818
thorax -1.45278 1.51343 3.99724
lowerneck -9.24252 -0.828421 -4.07887
upperneck 39.6959 -4.21169 0.762891
head 15.647 -3.29894 0.127751
rclavicle 3.97569e-016 1.27222e-014
rhumerus -31.7441 -1.8451 -80.7495
rradius 44.2661
rwrist -1.21921
rhand -36.4263 14.0898
rfingers 7.12502
rthumb -9.52112 -15.6751
lclavicle 3.97569e-016 1.27222e-014
lhumerus -38.8258 10.3569 85.6153
lradius 39.458
lwrist 6.38783
lhand -20.0035 24.7525
lfingers 7.12502
lthumb 6.33641 54.6378
rfemur -35.3289 4.2474 27.417
rtibia 46.4193
rfoot -30.1729 10.4328
rtoes -7.62227
lfemur -37.2131 -13.6068 -9.49227
ltibia 43.1921
lfoot -22.2997 -6.1917
ltoes -12.8703
3403
root -3.32011 24.6018 -3.75469 -352.035 -135.05 366.739
lowerback 6.38821 2.41318 0.354532
upperback 1.81062 3.1601 4.10655
thorax -1.92426 1.50652 3.7901
lowerneck -9.30668 -0.674653 -4.14646
upperneck 39.7865 -4.05723 0.857869
head 15.7074 -3.24961 0.196878
rclavicle 8.68689e-014 1.59028e-014
rhumerus -31.4768 -1.81955 -80.8435
rradius 44.0841
rwrist -1.32402
rhand -36.2792 14.2161
rfingers 7.12502
rthumb -9.3792 -15.5553
lclavicle 8.68689e-014 1.59028e-014
lhumerus -38.7831 11.1416 85.3926
lradius 39.1333
lwrist 5.64703
lhand -19.9499 24.0541
lfingers 7.12502
lthumb 6.38818 53.9378
rfemur -35.757 5.01601 28.1724
rtibia 46.3838
rfoot -30.232 10.3575
rtoes -9.41184
lfemur -37.4608 -12.8693 -8.67282
ltibia 43.2159
lfoot -21.9548 -5.80917
ltoes -12.1588
3404
root -3.36578 24.6103 -3.75873 -352.016 -136.134 366.59
lowerback 6.30693 2.43662 0.0583755
upperback 1.83191 3.17334 4.03666
thorax -1.8702 1.51568 3.88657
lowerneck -8.96382 -0.642134 -4.06057
upperneck 39.5896 -4.14244 1.03333
head 15.5288 -3.2648 0.250805
rclavicle 3.33958e-014 -5.48646e-014
rhumerus -31.573 -2.1071 -80.9906
rradius 44.0521
rwrist -1.32252
rhand -36.2854 14.178
rfingers 7.12502
rthumb -9.38515 -15.5931
lclavicle 3.33958e-014 -5.48646e-014
lhumerus -38.8509 11.2729 85.2185
lradius 38.9139
lwrist 5.44819
lhand -19.866 23.7881
lfingers 7.12502
lthumb 6.46916 53.6693
rfemur -35.5001 5.50045 27.9327
rtibia 46.3617
rfoot -30.5211 10.4042
rtoes -10.5206
lfemur -36.9047 -12.3572 -9.08787
ltibia 43.2516
lfoot -21.9683 -4.95179
ltoes -12.7867
